<svg width="0" height="0" class="hidden">
  <symbol xmlns="http://www.w3.org/2000/svg" viewBox="0 0 153 76" id="car">
    <path d="M96.0343 7.99386C96.1008 8.26849 97.0995 10.6404 97.6904 12.0469L97.3076 12.1051C93.8704 12.5961 90.4 12.8208 86.9296 12.7709L48.4052 12.2383C46.1415 12.205 43.8944 11.8471 41.7306 11.1813C39.4669 10.4739 37.1034 10.1161 34.7315 10.1161L17.6373 10.1161C8.19134 10.1161 0.534743 17.7727 0.534743 27.2186L0.534742 56.1306C0.534741 65.5765 8.19134 73.2331 17.6373 73.2331L34.7315 73.2331C37.1034 73.2331 39.4669 72.8753 41.7306 72.1679C43.8944 71.4937 46.1415 71.1359 48.4052 71.1109L86.9296 70.57C90.4 70.52 93.8704 70.7447 97.3076 71.2358L97.6904 71.294C97.0995 72.7005 96.1008 75.0641 96.0343 75.347C95.9344 75.7465 97.0329 76.3457 98.2314 75.7465C99.2051 75.2555 101.036 72.7754 101.685 71.8683L106.587 72.5673C109.716 73.0168 112.879 73.2415 116.033 73.2415L122.757 73.2415C134.975 73.2415 144.878 63.3378 144.878 51.1205L144.878 32.2204C144.878 20.0031 134.975 10.0994 122.757 10.0994L116.033 10.0994C112.87 10.0994 109.716 10.3241 106.587 10.7735L101.685 11.4726C101.036 10.5655 99.2051 8.07708 98.2314 7.59438C97.0329 6.99517 95.9344 7.59438 96.0343 7.99386Z" fill="#45474A"></path>
    <path d="M113.794 3.56632C116.923 3.11692 120.086 2.89221 123.24 2.89221L129.965 2.89221C142.182 2.89221 152.085 12.7959 152.085 25.0131L152.085 34.4507L152.085 43.8883C152.085 56.1056 142.182 66.0093 129.965 66.0093L123.24 66.0093C120.078 66.0093 116.923 65.7846 113.794 65.3352L104.515 64.0119C101.077 63.5209 97.607 63.2962 94.1366 63.3461L55.6122 63.8787C53.3485 63.912 51.1015 64.2699 48.9376 64.9357C46.674 65.6431 44.3104 66.001 41.9385 66.001L24.8443 66.001C15.3984 66.001 7.74177 58.3444 7.74177 48.8984L7.74177 34.4507L7.74177 20.0031C7.74177 10.5571 15.3984 2.90053 24.8443 2.90053L41.9385 2.90053C44.3104 2.90053 46.674 3.25839 48.9376 3.9658C51.1015 4.63991 53.3485 4.99777 55.6122 5.02274L94.1366 5.55538C97.607 5.60531 101.077 5.38061 104.515 4.88959L113.794 3.56632Z"></path>
    <path d="M111.888 63.6041C114.842 64.0286 117.822 64.2366 120.81 64.2366L127.16 64.2366C138.686 64.2366 148.032 54.8906 148.032 43.364L148.032 34.4508L148.032 25.5458C148.032 14.0193 138.686 4.67322 127.16 4.67322L120.81 4.67322C117.822 4.67322 114.842 4.88128 111.888 5.30572L103.133 6.55408C99.8871 7.02013 96.6164 7.22819 93.3374 7.17826L56.9769 6.67059C54.838 6.6373 52.7158 6.3044 50.6768 5.6719C48.5379 5.00611 46.3075 4.67321 44.0688 4.67321L27.9317 4.67321C19.0184 4.67321 11.7862 11.8971 11.7862 20.8187L11.7862 34.4508L11.7862 48.0995C11.7862 57.0128 19.0101 64.2449 27.9317 64.2449L44.0688 64.2449C46.3075 64.2449 48.5379 63.9037 50.6768 63.2463C52.7158 62.6138 54.838 62.2725 56.9769 62.2476L93.3374 61.7399C96.6164 61.6983 99.8871 61.9064 103.133 62.3641L111.888 63.6041Z"></path>
    <path d="M139.435 7.21985C142.065 5.42221 147.208 13.2037 145.419 15.4923C143.621 17.7893 137.238 8.70956 139.435 7.21985Z" fill="white"></path>
    <path d="M109.125 4.59C109.125 4.59 106.637 0.97808 105.439 0.378868C104.24 -0.220345 103.142 0.378867 103.242 0.778342C103.341 1.17782 105.339 5.86333 105.339 5.86333L109.125 4.59Z"></path>
    <path d="M73.1975 10.2492C79.6141 10.2825 85.1402 10.191 89.0933 10.0079C101.752 9.40865 111.822 7.11999 111.822 7.11999C96.7998 6.36266 84.6075 6.01312 74.7372 5.92157C74.088 7.3447 73.7801 8.7928 73.1975 10.2492Z" fill="#45474A"></path>
    <path d="M73.5635 5.91325C43.1201 5.68022 35.5551 7.91894 35.5551 7.91894C41.6554 9.47523 58.0672 10.1577 72.1154 10.2492C72.5565 8.81776 73.2472 7.37799 73.5635 5.91325Z" fill="#45474A"></path>
    <path d="M73.1975 58.6606C79.6141 58.6273 85.1402 58.7189 89.0933 58.902C101.752 59.5012 111.822 61.7898 111.822 61.7898C96.7998 62.5472 84.6075 62.8967 74.7372 62.9883C74.088 61.5651 73.7801 60.117 73.1975 58.6606Z" fill="#45474A"></path>
    <path d="M73.5635 62.9966C43.1201 63.2296 35.5551 60.9909 35.5551 60.9909C41.6554 59.4346 58.0672 58.7522 72.1154 58.6606C72.5565 60.0921 73.2472 61.5319 73.5635 62.9966Z" fill="#45474A"></path>
    <path d="M11.845 15.5673C10.9961 15.1678 11.1126 13.1621 12.0947 11.0815C13.0767 9.00921 14.5581 7.65266 15.407 8.05213C16.2559 8.45161 16.1393 10.4573 15.1573 12.5379C14.1669 14.6102 12.6855 15.9667 11.845 15.5673Z" fill="red"></path>
    <path d="M139.435 61.69C142.065 63.4876 147.208 55.7062 145.419 53.4175C143.621 51.1205 137.238 60.2003 139.435 61.69Z" fill="white"></path>
    <path d="M109.125 64.3115C109.125 64.3115 106.637 67.9235 105.439 68.5227C104.24 69.1219 103.142 68.5227 103.242 68.1232C103.341 67.7237 105.339 63.0382 105.339 63.0382L109.125 64.3115Z"></path>
    <path d="M11.845 53.3426C10.9961 53.7421 11.1126 55.7478 12.0947 57.8284C13.0767 59.9006 14.5581 61.2572 15.407 60.8577C16.2559 60.4582 16.1393 58.4526 15.1573 56.372C14.1669 54.2997 12.6855 52.9431 11.845 53.3426Z" fill="red"></path>
    <path d="M42.0302 34.4508C42.0302 49.1232 44.9181 55.7062 44.9181 55.7062L22.8887 55.7062C22.8887 55.7062 16.805 50.28 16.805 34.4508C16.805 18.6216 22.8887 13.1954 22.8887 13.1954L44.9181 13.1954C44.9181 13.1954 42.0302 19.7784 42.0302 34.4508ZM127.967 34.4508C127.967 14.0609 116.799 8.90936 116.799 8.90936L94.8691 11.6391C94.8691 11.6391 97.3575 23.2821 97.3575 34.4508C97.3575 45.6195 94.8691 57.2625 94.8691 57.2625L116.799 59.9922C116.799 60.0006 127.967 54.8407 127.967 34.4508Z" fill="#45474A"></path>
  </symbol>
</svg>